<svg width="1936" height="480" viewBox="0 0 1936 480" fill="none" xmlns="http://www.w3.org/2000/svg">
<path d="M282.722 143.242C286.018 147.363 289.315 151.484 292.776 155.604C317.007 136.978 342.557 120 369.095 105L365.634 99.0659C359.7 88.8461 353.765 78.7912 347.831 68.5714L346.348 66.0989L346.183 65.6044C345.689 64.6154 345.029 63.6264 344.205 62.8022C342.557 61.1538 340.249 60.1648 337.941 60.1648C336.952 60.1648 335.963 60.1648 335.139 60.1648C330.689 60.1648 326.238 60 321.623 60C317.667 60 313.546 60 309.59 60C306.952 60 304.15 60 301.513 60H300.853C298.875 73.1868 295.744 86.0439 290.963 98.4066C286.513 109.945 281.073 121.154 274.315 131.538C276.952 135.494 279.755 139.451 282.722 143.242Z" fill="white"/>
<path d="M302.502 166.648C309.755 174.725 317.337 182.473 324.92 190.055C333.161 198.297 341.733 206.538 350.469 214.286C354.755 218.242 359.205 222.033 363.656 225.824C372.392 216.923 381.458 208.352 391.018 200.11C398.436 193.681 405.854 187.418 413.601 181.483C401.238 160.055 388.711 138.626 376.513 117.692C373.546 119.341 370.744 120.989 367.942 122.637C345.359 135.989 323.436 150.659 302.502 166.648Z" fill="white"/>
<path d="M444.094 234.56C443.6 233.571 443.105 232.582 442.446 231.593L441.787 230.44L440.303 227.637C438.985 225.33 437.666 222.857 436.347 220.549C433.05 214.78 429.589 208.681 425.138 200.769C423.82 198.626 422.666 196.319 421.347 194.176C421.182 194.176 421.182 194.341 421.017 194.341C405.028 206.868 389.864 220.549 375.523 234.89C376.677 235.714 377.666 236.538 378.82 237.527C393.49 248.736 408.655 259.286 424.644 268.846C425.963 269.67 427.446 270.494 428.765 271.319C433.875 262.582 438.984 253.846 444.094 245.11C445.083 243.462 445.908 241.813 445.908 239.67C445.578 237.857 444.919 236.374 444.094 234.56Z" fill="white"/>
<path d="M256.183 153.791C243.656 166.154 228.821 175.714 212.337 181.813C194.865 188.242 176.238 190.714 157.777 189.066C155.139 193.681 152.337 198.132 149.535 202.747C145.579 209.011 141.623 215.11 137.502 221.044C149.04 226.154 160.249 231.758 171.128 238.187C178.051 242.308 184.645 246.593 191.238 251.209C213.161 225.824 237.062 201.923 262.612 180C268.711 174.725 274.81 169.615 281.073 164.67C275.469 158.077 270.029 151.154 264.92 144.231C262.282 147.527 259.315 150.824 256.183 153.791Z" fill="white"/>
<path d="M305.963 293.901C318.985 275.934 332.831 258.626 347.831 242.308C349.645 240.33 351.623 238.352 353.436 236.374C345.524 229.615 337.776 222.857 330.194 215.604C316.678 202.747 303.326 189.56 290.963 175.714C259.315 201.099 229.974 229.451 203.271 260.11C209.7 265.22 215.963 270.659 221.897 276.264C229.645 283.681 236.897 291.758 243.82 300C261.293 301.648 278.765 304.451 295.743 308.901C298.875 303.956 302.337 298.846 305.963 293.901Z" fill="white"/>
<path d="M147.887 306.758C155.964 295.22 164.37 284.011 173.271 272.967C176.073 269.505 178.876 266.044 181.678 262.582C165.194 251.044 147.392 241.319 128.931 233.407C123.326 241.154 117.392 248.571 111.293 255.989C98.2712 271.648 83.9305 286.319 68.436 299.67C74.3701 309.89 80.1393 320.275 85.7437 330.33L86.4031 331.484C91.6778 328.352 97.1174 325.549 102.557 322.912C117.062 315.989 132.392 310.549 147.887 306.758Z" fill="white"/>
<path d="M169.15 302.473C184.48 300 200.139 298.846 215.798 298.846C218.271 298.846 220.578 298.846 223.051 299.011C220.908 296.703 218.765 294.396 216.622 292.253C209.37 284.835 201.787 278.077 193.71 271.648C188.436 277.912 183.326 284.341 178.216 290.769C175.084 294.56 172.117 298.516 169.15 302.473Z" fill="white"/>
<path d="M265.743 358.681C264.424 356.538 263.271 354.231 261.952 352.088C254.699 340.055 246.952 328.516 238.38 317.308C237.556 316.319 236.897 315.33 236.073 314.341C229.315 313.846 222.556 313.681 215.798 313.681C202.941 313.681 190.084 314.505 177.391 316.154C170.468 317.143 163.545 318.461 156.622 319.945C148.051 332.472 139.974 345.165 132.227 358.187C126.952 367.088 121.842 376.319 116.897 385.385C120.194 391.154 123.326 396.923 126.622 402.692C126.622 402.857 126.787 402.857 126.787 403.022L127.941 405C128.435 405.989 129.095 406.978 129.589 407.967L130.413 409.45C131.073 410.769 131.897 412.088 132.721 413.407L133.38 414.56C134.369 416.374 136.183 417.857 138.326 418.352C139.315 418.681 140.468 418.681 141.457 418.681H142.446H142.941H143.435C148.875 418.681 154.479 418.846 159.919 418.846L167.666 419.011C183.985 419.176 200.468 419.341 216.457 419.341H219.095C225.194 419.341 231.293 419.341 237.556 419.505C238.71 416.209 239.864 412.912 241.183 409.615C246.293 396.758 252.556 384.56 258.655 372.198C261.128 367.747 263.435 363.132 265.743 358.681Z" fill="white"/>
<path d="M117.557 332.308C109.315 335.769 101.403 339.89 93.8203 344.341L101.568 358.022C103.875 362.143 106.183 366.099 108.491 370.22C116.732 355.055 125.633 340.22 135.029 325.879C129.095 327.692 123.326 329.835 117.557 332.308Z" fill="white"/>
<path d="M261.952 324.56C266.238 330.824 270.194 337.088 274.15 343.516C278.271 336.264 282.556 329.176 286.842 322.253C276.787 319.78 266.567 317.802 256.347 316.483H256.183C258.161 319.121 260.139 321.758 261.952 324.56Z" fill="white"/>
<path d="M364.974 245.934C352.447 259.121 340.579 272.967 329.37 287.473C322.941 295.879 316.678 304.615 310.579 313.352C327.392 318.462 344.04 324.89 360.029 332.308C368.765 336.429 377.502 340.714 385.908 345.495C387.392 343.022 388.875 340.385 390.194 337.912L391.842 334.945C400.579 319.78 409.15 304.615 417.557 290.275C418.71 288.297 419.699 286.484 420.853 284.505C419.04 283.516 417.227 282.363 415.414 281.374C398.106 270.495 381.128 258.626 364.974 245.934Z" fill="white"/>
<path d="M341.733 340.22C328.711 334.78 315.359 330 301.843 326.044C296.898 333.791 292.117 341.538 287.667 349.451C286.018 352.418 284.37 355.385 282.722 358.352C283.876 360.659 285.194 362.802 286.348 365.11C288.656 369.396 290.963 373.846 293.106 378.297C297.392 387.857 300.854 397.912 303.985 407.802C305.304 411.758 306.458 415.879 307.777 419.835C312.887 419.835 317.832 419.835 322.941 419.835C327.887 419.835 332.996 419.835 337.941 419.835C341.238 419.835 344.535 418.022 346.183 415.055C350.139 408.297 353.93 401.538 357.887 394.945L359.7 391.648C361.678 388.187 363.821 384.725 365.799 381.099L366.458 379.945C366.952 378.956 367.612 377.967 368.106 376.978C368.436 376.484 368.601 375.989 368.766 375.495C371.403 370.549 374.205 365.604 376.843 360.824L378.491 358.022C378.326 357.857 377.996 357.857 377.832 357.692C366.293 351.429 354.095 345.494 341.733 340.22Z" fill="white"/>
<path d="M274.48 374.341C273.161 376.813 272.007 379.286 270.689 381.758C266.073 391.154 261.293 400.549 257.007 410.275C255.689 413.407 254.535 416.538 253.381 419.835C261.952 419.835 270.689 419.835 279.26 420C283.546 420 287.831 420 292.117 420C288.82 409.451 285.689 398.901 281.568 388.846C279.425 383.736 276.952 378.956 274.48 374.341Z" fill="white"/>
<path d="M265.248 117.857C268.71 112.088 271.677 106.154 274.314 100.055C279.589 87.1978 283.38 73.6813 285.688 60H272.171C262.611 60 252.886 60 243.325 60C244.974 71.5385 248.435 82.9121 252.886 93.6264C256.512 102.033 260.633 110.11 265.248 117.857Z" fill="white"/>
<path d="M166.017 174.56C166.017 174.56 166.017 174.725 165.853 174.725C171.787 174.89 177.721 174.56 183.655 173.901C193.38 172.418 202.94 169.945 212.006 166.154C220.248 162.527 227.995 157.912 235.248 152.637C242.995 146.538 249.918 139.451 256.182 131.538C255.853 131.044 255.523 130.385 255.028 129.89C249.918 121.813 245.303 113.571 241.347 105C237.391 96.2637 233.929 87.3627 231.622 78.1319C230.138 72.3627 228.984 66.2637 228.16 60.3297C218.105 60.3297 208.05 60.3297 197.995 60.3297C197.666 63.6264 197.171 66.9231 196.842 70.2198C196.347 75.4945 195.688 80.7692 194.864 86.2088C191.896 106.154 186.787 125.934 179.369 144.725C175.578 154.615 171.127 164.67 166.017 174.56Z" fill="white"/>
<path d="M123.486 165.494C132.058 168.956 140.794 171.593 149.86 173.077C150.519 171.758 151.343 170.44 152.003 169.286C155.959 161.868 159.585 154.286 163.047 146.538C171.948 125.11 178.047 102.857 181.343 79.945C182.168 74.011 182.827 67.9121 183.486 61.978C183.486 61.3187 183.651 60.8242 183.651 60.1648C168.321 60.1648 154.31 60.1648 140.959 60C139.31 60 137.827 60.4945 136.343 61.1538C135.025 61.978 133.871 62.967 133.047 64.4505C132.552 65.6044 131.893 66.7582 131.234 67.9121C131.069 68.2417 130.739 68.7363 130.574 69.0659C129.75 70.5494 128.926 71.8681 128.267 73.3516L127.772 74.3407C125.959 77.4725 124.31 80.6044 122.497 83.7362C119.53 88.8461 116.728 93.7912 113.761 98.9011L110.464 104.835L100.739 121.813C96.2885 129.56 92.0028 137.143 87.5522 144.89C87.7171 145.055 87.8819 145.055 88.0468 145.22C98.5962 153.297 110.794 160.055 123.486 165.494Z" fill="white"/>
<path d="M123.491 215.275C128.766 207.527 133.876 199.78 138.821 191.868C139.81 190.22 140.963 188.407 141.952 186.758C124.48 182.967 107.996 175.714 92.8316 166.483C88.381 163.846 83.9305 160.879 79.8096 157.747C73.0514 169.451 66.4579 181.154 59.6997 192.857C59.0404 194.011 58.381 195.165 57.7217 196.319C60.6887 196.978 63.6557 197.637 66.6228 198.297C85.9085 202.582 105.029 208.187 123.491 215.275Z" fill="white"/>
<path d="M109.48 234.56C111.293 232.253 112.941 230.11 114.59 227.802C93.4908 220.055 71.8974 214.286 49.9743 209.67C45.0293 218.242 39.9194 227.143 35.1392 235.879C33.326 239.011 33.8205 242.967 36.293 245.44L36.7875 245.934L36.9524 246.099C37.6117 247.088 38.1062 247.912 38.7655 248.736C39.26 249.396 39.7546 250.22 40.4139 251.044C42.8864 255.165 45.1941 259.451 47.6666 263.571L52.7765 272.472C55.4139 277.088 58.2161 281.868 60.8535 286.648C61.8425 285.824 62.8315 284.835 63.8205 284.011C69.26 279.066 74.6996 273.956 79.8095 268.681C90.359 257.802 100.249 246.429 109.48 234.56Z" fill="white"/>
<path d="M741.815 95.9501L741.815 379.548H708.053V354.039H707.303C700.801 363.543 691.985 370.92 680.856 376.172C669.727 381.424 657.911 384.05 645.406 384.05C618.646 383.8 596.951 374.921 580.321 357.416C563.692 339.91 555.249 317.652 555 290.643C555 263.384 563.316 241.125 579.946 223.869C596.577 206.613 618.397 197.736 645.406 197.235C657.661 197.235 669.415 199.861 680.668 205.113C691.922 210.365 700.8 217.742 707.303 227.246H708.053V95.9501H741.815ZM591.013 290.643C591.013 308.899 596.39 323.716 607.143 335.095C617.897 346.475 632.028 352.289 649.533 352.539C667.289 352.539 681.481 346.849 692.11 335.471C702.74 324.092 708.053 309.15 708.053 290.643C708.053 272.386 702.802 257.569 692.298 246.19C681.794 234.81 667.414 228.996 649.158 228.746C631.652 228.746 617.585 234.498 606.956 246.002C596.327 257.506 591.013 272.387 591.013 290.643ZM874.236 197.235C901.495 197.235 922.691 205.8 937.82 222.932C952.949 240.063 960.641 263.633 960.891 293.644V303.022H818.342C818.342 317.527 824.156 329.718 835.785 339.597C847.414 349.476 861.607 354.539 878.362 354.79C896.869 354.79 913.124 345.912 927.129 328.155L952.638 347.662C933.632 371.92 907.371 384.05 873.861 384.05C846.602 384.05 824.655 375.359 808.025 357.978C791.396 340.597 782.83 318.151 782.329 290.643C782.329 264.134 790.894 242.063 808.025 224.432C825.157 206.801 847.227 197.736 874.236 197.235ZM924.878 276.012C924.378 259.257 919.627 246.439 910.623 237.562C901.62 228.684 889.241 224.245 873.486 224.245C862.982 224.245 853.542 226.808 845.163 231.935C836.785 237.062 830.221 243.689 825.469 251.817C820.717 259.944 818.342 268.01 818.342 276.012H924.878ZM1019.04 201.737L1072.3 337.909L1123.32 201.737H1159.33L1089.56 379.548H1052.42L980.022 201.737H1019.04ZM1222.73 95.9501L1222.73 227.246H1223.48C1229.48 217.992 1238.17 210.677 1249.55 205.3C1260.93 199.924 1272.87 197.235 1285.38 197.235C1312.14 197.235 1333.89 206.051 1350.65 223.682C1367.41 241.313 1375.78 263.633 1375.78 290.643C1375.78 317.402 1367.59 339.533 1351.21 357.04C1334.83 374.548 1313.01 383.549 1285.75 384.05C1273.5 384.05 1261.68 381.424 1250.3 376.172C1238.92 370.92 1229.99 363.543 1223.48 354.039H1222.73V379.548H1188.97V95.9501H1222.73ZM1222.73 290.643C1222.73 309.149 1228.05 323.967 1238.68 335.095C1249.3 346.224 1263.5 352.039 1281.25 352.539C1299.01 352.539 1313.2 346.787 1323.83 335.283C1334.46 323.779 1339.77 308.898 1339.77 290.643C1339.77 272.387 1334.52 257.569 1324.02 246.19C1313.51 234.81 1299.13 228.996 1280.88 228.746C1263.12 228.746 1248.99 234.561 1238.49 246.19C1227.98 257.819 1222.73 272.636 1222.73 290.643ZM1451.94 201.737V308.274C1451.94 322.278 1455.62 333.158 1463 340.91C1470.38 348.662 1480.2 352.539 1492.45 352.539C1508.21 352.539 1520.4 347.35 1529.03 336.971C1537.65 326.592 1541.97 312.526 1541.97 294.769V201.737H1575.73V379.548H1541.97V352.164H1541.22C1536.47 362.167 1528.71 369.982 1517.96 375.609C1507.21 381.236 1495.45 384.05 1482.7 384.05C1462.94 384.05 1447.25 377.923 1435.62 365.668C1423.99 353.414 1418.17 337.408 1418.17 317.652V201.737H1451.94ZM1756.54 201.737V231.747L1654.88 350.288H1761.79V379.548H1614.37V349.163L1715.28 230.997H1617.74V201.737H1756.54ZM1930.23 201.737V231.747L1828.57 350.288H1935.48V379.548H1788.05V349.163L1888.96 230.997H1791.43V201.737H1930.23Z" fill="white"/>
</svg>
